<svg width="1060" height="174" viewBox="0 0 1060 174" fill="none" xmlns="http://www.w3.org/2000/svg">
<path fill-rule="evenodd" clip-rule="evenodd" d="M49.9106 1.17196C35.8506 3.80596 26.8266 8.30396 18.5246 16.815C4.30864 31.389 -2.57136 57.514 0.878644 83.821C2.35964 95.112 4.95264 103.795 9.51364 112.736C12.6286 118.841 22.8476 129.214 29.7146 133.24C40.1586 139.364 42.4617 139.675 73.3036 139.132C88.5307 138.863 102.565 138.175 104.49 137.602C111.196 135.605 115.49 133.375 115.49 131.888C115.49 131.065 113.489 127.961 111.044 124.991C105.479 118.231 105.244 116.741 105.662 90.854L105.99 70.543L112.448 64.4939C118.904 58.446 118.906 58.444 116.763 56.709C114.86 55.168 112.223 54.994 93.3046 55.161C81.5816 55.264 71.2026 55.698 70.2396 56.126C66.8476 57.632 68.0586 59.596 76.9226 66.963C79.4376 69.053 79.9697 70.385 80.6497 76.295C81.0867 80.087 81.1636 88.317 80.8216 94.584C80.3306 103.587 79.8276 106.351 78.4266 107.752C76.1516 110.027 68.0126 111.04 56.2156 110.515C48.3606 110.165 46.1936 109.67 41.6306 107.178C32.7566 102.333 26.0966 92.879 21.9146 79.189C19.3316 70.735 19.2666 47.595 21.8026 39.521C27.0756 22.74 38.5576 13.842 57.5606 11.812C71.0956 10.365 79.5456 13.344 78.1126 19.056C77.3876 21.943 74.6426 23.959 55.4896 35.672C38.1346 46.285 33.8306 49.794 32.5696 54.361C29.8526 64.2 40.7246 71.569 48.4126 65.1C51.7026 62.332 52.5536 57.546 50.4546 53.623C49.7396 52.288 49.7416 51.086 50.4616 49.742C52.0396 46.792 64.6146 38.931 82.4796 29.725C91.3066 25.177 99.8437 20.226 101.452 18.724C107.663 12.923 106.356 6.87596 97.9866 2.68896C93.2616 0.324958 92.0116 0.179961 74.9896 0.0169612C63.5346 -0.0920388 54.4156 0.32796 49.9106 1.17196ZM759.951 1.64496C753.394 2.65196 748.49 5.21296 748.49 7.63096C748.49 9.68996 753.287 13.77 760.73 18.041C763.85 19.832 765.73 21.689 766.23 23.475C767.234 27.059 767.216 111.381 766.211 114.98C765.641 117.022 763.155 119.24 756.961 123.236C747.887 129.09 746.577 131.39 750.756 134.128C757.25 138.383 759.772 138.604 805.261 138.902L848.99 139.189L853.653 136.448C864.507 130.067 866.454 116.986 857.832 108.364C853.513 104.045 852.206 103.821 850.694 107.141C848.375 112.231 844.539 113.189 826.49 113.189C808.082 113.189 799.525 111.482 795.276 106.963C793.117 104.667 792.971 103.61 792.65 87.882L792.31 71.232L788.925 67.486C783.051 60.983 783.057 54.468 788.946 46.91L792.49 42.361V30.09C792.49 23.341 792.908 16.72 793.419 15.377C794.7 12.007 799.2 10.688 809.389 10.695C818.704 10.701 824.585 11.894 826.464 14.158C829.146 17.389 827.02 19.62 804.529 37.174C789.961 48.544 787.49 51.498 787.49 57.546C787.49 63.139 790.15 66.813 795.957 69.24C800.814 71.269 805.527 71.028 816.49 68.189C828.179 65.162 831.088 65.073 832.722 67.689C834.344 70.286 835.649 70.213 838.316 67.375C841.27 64.229 841.311 57.003 838.395 53.296C833.146 46.622 824.156 45.141 810.931 48.769C801.753 51.287 798.913 50.772 802.553 47.251C803.893 45.955 808.14 43.199 811.99 41.126C846.108 22.757 856.49 15.051 856.49 8.09496C856.49 5.42096 855.896 4.62096 852.74 3.05296C849.277 1.33196 845.772 1.17696 806.99 1.02996C783.89 0.942962 762.723 1.21996 759.951 1.64496ZM437.019 3.04396C434.462 4.91396 435.542 7.06196 440.958 10.879L445.49 14.074V68.74V123.406L439.927 127.1C433.431 131.413 433.256 133.089 438.99 136.086C442.43 137.884 444.933 138.199 456.873 138.34C471.265 138.51 477.083 137.294 480.274 133.449C481.688 131.745 479.906 129.634 473.49 125.412L469.99 123.109V91.154V59.198L474.49 58.391C476.965 57.947 481.571 56.933 484.725 56.137C492.306 54.223 494.357 54.31 498.3 56.715C504.149 60.28 504.494 62.396 504.454 94.407L504.418 123.189L499.204 126.713C492.795 131.044 492.513 133.218 497.99 136.091C501.311 137.833 503.941 138.215 513.49 138.34C527.261 138.52 534.633 137.213 538.132 133.97C540.652 131.634 540.667 131.542 538.85 129.534C537.83 128.407 535.799 126.866 534.337 126.11C528.259 122.967 528.49 124.399 528.49 89.796C528.49 54.593 528.083 51.721 522.256 45.761C516.792 40.172 513.985 39.189 503.49 39.189H493.99L482.522 44.863C476.215 47.984 470.702 50.32 470.272 50.054C469.842 49.788 469.49 41.722 469.49 32.128V14.686L474.392 11.164C480.035 7.10996 481.021 5.36296 478.876 3.21796C476.757 1.09896 439.888 0.945961 437.019 3.04396ZM561.323 7.33996C557.404 8.02496 553.484 12.071 553.522 15.391C553.589 21.326 558.197 24.022 568.274 24.022C573.988 24.022 576.142 23.593 578.224 22.038C583.063 18.426 582.995 12.376 578.08 9.15596C575.535 7.48796 566.237 6.48096 561.323 7.33996ZM230.885 35.932C225.616 36.981 218.958 42.598 218.141 46.682C216.67 54.041 223.309 61.438 233.295 63.563C237.559 64.47 240.663 64.37 249.11 63.055C257.423 61.76 259.867 61.675 260.804 62.649C262.452 64.359 259.636 66.152 246.42 71.803C224.774 81.059 213.697 93.006 213.544 107.261C213.349 125.449 229.117 137.957 250.23 136.36C254.498 136.038 261.815 135.486 266.49 135.133C273.152 134.631 277.201 134.949 285.214 136.605C294.164 138.453 296.305 138.573 302.384 137.569C309.419 136.408 316.487 133.244 317.254 130.915C317.484 130.214 315.63 127.739 313.133 125.415L308.593 121.189L308.292 85.689C307.962 46.893 308.034 47.386 301.829 41.492C295.691 35.661 293.587 35.321 262.99 35.213C247.59 35.159 233.143 35.482 230.885 35.932ZM974.165 35.894C962.714 38.273 957.401 47.11 962.446 55.385C965.024 59.613 968.361 61.681 975.278 63.337C980.237 64.525 982.28 64.494 990.772 63.102C1000.91 61.44 1003.49 61.632 1003.49 64.047C1003.49 65.487 998.438 68.206 989.115 71.783C976.327 76.689 964.568 85.288 960.011 93.064C952.614 105.685 956.058 122.244 967.751 130.281C977.291 136.839 981.743 137.353 1009.49 135.098C1015.04 134.647 1019.76 135.028 1027.63 136.558C1036.7 138.321 1039.21 138.464 1044.63 137.526C1052.04 136.243 1057.36 133.944 1058.9 131.36C1059.82 129.823 1059.33 128.938 1055.83 125.804L1051.67 122.076L1051 87.633C1050.63 68.689 1049.86 51.614 1049.28 49.689C1047.7 44.377 1044.28 40.441 1038.88 37.715C1034.04 35.275 1033.7 35.249 1005.95 35.183C990.525 35.147 976.223 35.467 974.165 35.894ZM639.49 36.344C625.673 39.082 613.072 48.257 607.207 59.848C598.556 76.946 600.131 104.623 610.699 121.189C618.96 134.139 631.692 140.191 645.432 137.699C649.864 136.896 653.698 136.896 659.569 137.7C677.465 140.15 689.81 132.819 692.159 118.344C692.83 114.209 690.728 107.405 687.158 102.151L684.655 98.467L682.078 102.55C677.817 109.299 675.127 110.189 658.99 110.189C637.746 110.189 629.774 106.804 623.66 95.189C621.264 90.636 621.027 89.158 621.009 78.661C620.989 66.583 622.134 62.079 626.918 55.408C629.894 51.257 637.299 46.965 643.352 45.881C653.113 44.134 663.49 47.972 663.49 53.33C663.49 55.53 663.153 55.652 657.516 55.497C651.247 55.324 648.21 56.845 646.96 60.783C646.002 63.801 648.203 66.799 650.883 66.127C652.461 65.73 654.705 66.504 657.95 68.562C660.566 70.22 664.008 71.863 665.599 72.213C669.876 73.152 677.604 70.199 681.566 66.111C684.807 62.766 684.99 62.2019 684.99 55.5219V48.465L680.251 44.175C673.519 38.08 668.351 36.5 653.99 36.145C647.39 35.982 640.865 36.071 639.49 36.344ZM553.594 38.571C551.726 38.911 549.701 39.999 549.094 40.989C548.168 42.499 548.674 43.43 552.24 46.775L556.49 50.761V87.205V123.648L552.74 125.562C543.995 130.025 543.61 133.827 551.594 136.857C558.389 139.434 581.218 138.822 587.813 135.885C594.245 133.021 593.973 130.467 586.74 125.804L581.49 122.42V87.027V51.634L586.24 47.196C590.239 43.46 590.815 42.476 589.884 40.974C589.237 39.929 586.956 38.909 584.384 38.513C578.998 37.685 558.247 37.723 553.594 38.571ZM129.69 39.889C127.557 42.022 128.403 44.459 132.49 47.957L136.49 51.381L136.454 87.285L136.418 123.189L131.204 126.713C124.795 131.044 124.513 133.218 129.99 136.091C133.518 137.942 135.641 138.182 147.99 138.131C160.058 138.081 162.645 137.778 166.74 135.937C173.197 133.034 173.032 130.907 165.99 126.233L160.49 122.582V93.614V64.646L162.74 63.795C172.316 60.175 177.373 59.797 179.835 62.518C182.087 65.007 181.914 70.475 179.404 76.151C177.041 81.492 177.442 85.058 180.596 86.746C182.299 87.657 183.084 87.48 184.899 85.775C186.12 84.628 187.8 83.689 188.633 83.689C191.304 83.689 199.577 77.512 201.959 73.738C209.099 62.427 206.091 45.049 196.178 40.345C188.741 36.816 182.037 38.602 173.49 46.39C168.718 50.737 162.79 54.689 161.04 54.689C160.737 54.689 160.49 53.865 160.49 52.859C160.49 51.834 162.473 49.604 164.99 47.796C169.828 44.322 170.747 41.432 167.556 39.724C164.72 38.206 131.227 38.352 129.69 39.889ZM327.24 39.769C324.098 41.599 325.263 44.273 330.74 47.804L335.99 51.189L336.249 104.731L336.507 158.272L331.249 161.731C324.086 166.441 323.762 169.019 329.997 171.692C334.439 173.596 342.249 174.175 359.241 173.861C363.938 173.774 370.377 171.148 371.208 168.981C371.878 167.236 368.458 163.525 363.937 161.09L360.49 159.234V145.492C360.49 133.41 360.232 131.256 358.357 127.658C356.621 124.327 356.324 122.453 356.765 117.591C357.063 114.306 358.023 110.524 358.898 109.188C360.23 107.156 360.491 103.203 360.498 84.974L360.505 63.189L364.692 60.689C378.78 52.277 381.333 51.602 390.209 53.939C401.101 56.807 407.49 67.805 407.49 83.689C407.49 94.843 404.957 102.287 399.085 108.388C390.776 117.021 378.615 116.563 376.812 107.549C376.001 103.492 371.005 99.503 367.216 99.886C364.619 100.149 364.188 100.627 363.969 103.486C363.829 105.299 363.077 107.549 362.296 108.486C353.991 118.453 360.33 134.118 374.871 139.558C381.566 142.064 386.138 142.22 392.99 140.177C400.893 137.821 406.488 134.585 412.077 129.138C424.363 117.165 429.322 95.849 424.895 74.046C420.276 51.301 405.822 37.496 388.129 38.931C381.557 39.464 378.323 40.939 367.246 48.457C359.594 53.65 356.848 53.363 363.257 48.039C367.829 44.242 368.624 41.366 365.556 39.724C363.024 38.369 329.576 38.409 327.24 39.769ZM872.24 39.769C869.435 41.403 870.179 43.658 875.003 48.15L879.516 52.353L879.253 87.7439L878.99 123.135L873.24 126.939C870.077 129.032 867.49 131.103 867.49 131.542C867.49 132.992 871.931 136.26 875.49 137.429C879.178 138.64 900.519 138.487 906.094 137.209C907.801 136.818 910.498 135.46 912.088 134.192C914.969 131.896 914.972 131.879 913.037 129.741C911.969 128.561 909.384 126.633 907.292 125.458L903.49 123.321V93.711V64.101L909.03 62.395C916.787 60.006 921.008 60.163 922.933 62.912C924.612 65.308 925.021 70.696 923.64 72.239C923.173 72.761 922.055 75.094 921.155 77.423C919.859 80.776 919.755 82.177 920.656 84.154C922.065 87.247 925.429 88.49 926.914 86.467C927.506 85.66 930.24 84.006 932.99 82.791C942.793 78.46 948.462 69.9439 948.48 59.5219C948.501 47.2309 941.33 38.689 930.99 38.689C925.917 38.689 923.317 40.018 916.504 46.097C910.155 51.763 904.864 55.038 903.462 54.172C901.889 53.2 903.788 50.119 907.765 47.189C912.583 43.641 913.127 42.469 910.963 40.305C909.595 38.936 906.641 38.694 891.669 38.719C881.531 38.737 873.244 39.185 872.24 39.769ZM275.092 45.643C278.177 46.999 279.726 48.545 281.342 51.883C283.361 56.054 283.49 57.798 283.49 80.966V105.612L279.24 106.727C276.903 107.34 273.062 108.482 270.705 109.265C264.161 111.44 255.717 111.095 250.46 108.439C242.005 104.167 239.44 96.555 243.578 88.007C246.341 82.299 251.378 78.145 262.67 72.261C278.371 64.078 280.807 61.338 276.934 56.215C275.236 53.969 273.194 53.86 255.99 55.096C242.783 56.045 240.878 55.2 241.372 48.608C241.778 43.181 264.871 41.15 275.092 45.643ZM1017.43 45.558C1019.33 46.53 1021.8 48.565 1022.93 50.079C1024.87 52.667 1025.01 54.399 1025.29 79.206L1025.58 105.581L1021.29 106.751C1018.92 107.395 1015.29 108.544 1013.22 109.305C1011.15 110.066 1006.6 110.689 1003.13 110.689C994.375 110.689 988.805 107.742 985.656 101.446C983.385 96.906 983.365 96.633 984.904 91.336C986.993 84.152 993.896 77.84 1006.67 71.434C1017.75 65.879 1020.78 63.123 1020.32 59.051C1019.79 54.434 1016.16 53.332 1005.7 54.615C993.148 56.155 987.484 55.993 985.319 54.034C982.715 51.678 983.018 48.045 985.979 46.104C991.548 42.455 1010.74 42.122 1017.43 45.558Z" fill="#FF2C29"/>
</svg>
