<svg width="1059" height="174" viewBox="0 0 1059 174" fill="none" xmlns="http://www.w3.org/2000/svg">
<path fill-rule="evenodd" clip-rule="evenodd" d="M49.9106 1.17196C35.8506 3.80596 26.8266 8.30396 18.5246 16.815C4.30864 31.389 -2.57136 57.514 0.878644 83.821C2.35964 95.112 4.95264 103.795 9.51364 112.736C12.6286 118.841 22.8476 129.214 29.7146 133.24C40.1586 139.364 42.4617 139.675 73.3036 139.132C88.5307 138.863 102.565 138.175 104.49 137.602C111.196 135.605 115.49 133.375 115.49 131.888C115.49 131.065 113.489 127.961 111.044 124.991C105.479 118.231 105.244 116.741 105.662 90.854L105.99 70.543L112.448 64.4939C118.904 58.446 118.906 58.444 116.763 56.709C114.86 55.168 112.223 54.994 93.3046 55.161C81.5816 55.264 71.2026 55.698 70.2396 56.126C66.8476 57.632 68.0586 59.596 76.9226 66.963C79.4376 69.053 79.9697 70.385 80.6497 76.295C81.0867 80.087 81.1636 88.317 80.8216 94.584C80.3306 103.587 79.8276 106.351 78.4266 107.752C76.1516 110.027 68.0126 111.04 56.2156 110.515C48.3606 110.165 46.1936 109.67 41.6306 107.178C32.7566 102.333 26.0966 92.879 21.9146 79.189C19.3316 70.735 19.2666 47.595 21.8026 39.521C27.0756 22.74 38.5576 13.842 57.5606 11.812C71.0956 10.365 79.5456 13.344 78.1126 19.056C77.3876 21.943 74.6426 23.959 55.4896 35.672C38.1346 46.285 33.8306 49.794 32.5696 54.361C29.8526 64.2 40.7246 71.569 48.4126 65.1C51.7026 62.332 52.5536 57.546 50.4546 53.623C49.7396 52.288 49.7416 51.086 50.4616 49.742C52.0396 46.792 64.6146 38.931 82.4796 29.725C91.3066 25.177 99.8437 20.226 101.452 18.724C107.663 12.923 106.356 6.87596 97.9866 2.68896C93.2616 0.324958 92.0116 0.179961 74.9896 0.0169612C63.5346 -0.0920388 54.4156 0.32796 49.9106 1.17196ZM437.019 3.04396C434.462 4.91396 435.542 7.06196 440.958 10.879L445.49 14.074V68.74V123.406L439.927 127.1C433.431 131.413 433.256 133.089 438.99 136.086C442.43 137.884 444.933 138.199 456.873 138.34C471.265 138.51 477.083 137.294 480.274 133.449C481.688 131.745 479.906 129.634 473.49 125.412L469.99 123.109V91.154V59.198L474.49 58.391C476.965 57.947 481.571 56.933 484.725 56.137C492.306 54.223 494.357 54.31 498.3 56.715C504.149 60.28 504.494 62.396 504.454 94.407L504.418 123.189L499.204 126.713C492.795 131.044 492.513 133.218 497.99 136.091C501.311 137.833 503.941 138.215 513.49 138.34C527.261 138.52 534.633 137.213 538.132 133.97C540.652 131.634 540.667 131.542 538.85 129.534C537.83 128.407 535.799 126.866 534.337 126.11C528.259 122.967 528.49 124.399 528.49 89.796C528.49 54.593 528.083 51.721 522.256 45.761C516.792 40.172 513.985 39.189 503.49 39.189H493.99L482.522 44.863C476.215 47.984 470.702 50.32 470.272 50.054C469.842 49.788 469.49 41.722 469.49 32.128V14.686L474.392 11.164C480.035 7.10996 481.021 5.36296 478.876 3.21796C476.757 1.09896 439.888 0.945961 437.019 3.04396ZM561.323 7.33996C557.404 8.02496 553.484 12.071 553.522 15.391C553.589 21.326 558.197 24.022 568.274 24.022C573.988 24.022 576.142 23.593 578.224 22.038C583.063 18.426 582.995 12.376 578.08 9.15596C575.535 7.48796 566.237 6.48096 561.323 7.33996ZM230.885 35.932C225.616 36.981 218.958 42.598 218.141 46.682C216.67 54.041 223.309 61.438 233.295 63.563C237.559 64.47 240.663 64.37 249.11 63.055C257.423 61.76 259.867 61.675 260.804 62.649C262.452 64.359 259.636 66.152 246.42 71.803C224.774 81.059 213.697 93.006 213.544 107.261C213.349 125.449 229.117 137.957 250.23 136.36C254.498 136.038 261.815 135.486 266.49 135.133C273.152 134.631 277.201 134.949 285.214 136.605C294.164 138.453 296.305 138.573 302.384 137.569C309.419 136.408 316.487 133.244 317.254 130.915C317.484 130.214 315.63 127.739 313.133 125.415L308.593 121.189L308.292 85.689C307.962 46.893 308.034 47.386 301.829 41.492C295.691 35.661 293.587 35.321 262.99 35.213C247.59 35.159 233.143 35.482 230.885 35.932ZM639.49 36.344C625.673 39.082 613.072 48.257 607.207 59.848C598.556 76.946 600.131 104.623 610.699 121.189C618.96 134.139 631.692 140.191 645.432 137.699C649.864 136.896 653.698 136.896 659.569 137.7C677.465 140.15 689.81 132.819 692.159 118.344C692.83 114.209 690.728 107.405 687.158 102.151L684.655 98.467L682.078 102.55C677.817 109.299 675.127 110.189 658.99 110.189C637.746 110.189 629.774 106.804 623.66 95.189C621.264 90.636 621.027 89.158 621.009 78.661C620.989 66.583 622.134 62.079 626.918 55.408C629.894 51.257 637.299 46.965 643.352 45.881C653.113 44.134 663.49 47.972 663.49 53.33C663.49 55.53 663.153 55.652 657.516 55.497C651.247 55.324 648.21 56.845 646.96 60.783C646.002 63.801 648.203 66.799 650.883 66.127C652.461 65.73 654.705 66.504 657.95 68.562C660.566 70.22 664.008 71.863 665.599 72.213C669.876 73.152 677.604 70.199 681.566 66.111C684.807 62.766 684.99 62.2019 684.99 55.5219V48.465L680.251 44.175C673.519 38.08 668.351 36.5 653.99 36.145C647.39 35.982 640.865 36.071 639.49 36.344ZM553.594 38.571C551.726 38.911 549.701 39.999 549.094 40.989C548.168 42.499 548.674 43.43 552.24 46.775L556.49 50.761V87.205V123.648L552.74 125.562C543.995 130.025 543.61 133.827 551.594 136.857C558.389 139.434 581.218 138.822 587.813 135.885C594.245 133.021 593.973 130.467 586.74 125.804L581.49 122.42V87.027V51.634L586.24 47.196C590.239 43.46 590.815 42.476 589.884 40.974C589.237 39.929 586.956 38.909 584.384 38.513C578.998 37.685 558.247 37.723 553.594 38.571ZM129.69 39.889C127.557 42.022 128.403 44.459 132.49 47.957L136.49 51.381L136.454 87.285L136.418 123.189L131.204 126.713C124.795 131.044 124.513 133.218 129.99 136.091C133.518 137.942 135.641 138.182 147.99 138.131C160.058 138.081 162.645 137.778 166.74 135.937C173.197 133.034 173.032 130.907 165.99 126.233L160.49 122.582V93.614V64.646L162.74 63.795C172.316 60.175 177.373 59.797 179.835 62.518C182.087 65.007 181.914 70.475 179.404 76.151C177.041 81.492 177.442 85.058 180.596 86.746C182.299 87.657 183.084 87.48 184.899 85.775C186.12 84.628 187.8 83.689 188.633 83.689C191.304 83.689 199.577 77.512 201.959 73.738C209.099 62.427 206.091 45.049 196.178 40.345C188.741 36.816 182.037 38.602 173.49 46.39C168.718 50.737 162.79 54.689 161.04 54.689C160.737 54.689 160.49 53.865 160.49 52.859C160.49 51.834 162.473 49.604 164.99 47.796C169.828 44.322 170.747 41.432 167.556 39.724C164.72 38.206 131.227 38.352 129.69 39.889ZM327.24 39.769C324.098 41.599 325.263 44.273 330.74 47.804L335.99 51.189L336.249 104.731L336.507 158.272L331.249 161.731C324.086 166.441 323.762 169.019 329.997 171.692C334.439 173.596 342.249 174.175 359.241 173.861C363.938 173.774 370.377 171.148 371.208 168.981C371.878 167.236 368.458 163.525 363.937 161.09L360.49 159.234V145.492C360.49 133.41 360.232 131.256 358.357 127.658C356.621 124.327 356.324 122.453 356.765 117.591C357.063 114.306 358.023 110.524 358.898 109.188C360.23 107.156 360.491 103.203 360.498 84.974L360.505 63.189L364.692 60.689C378.78 52.277 381.333 51.602 390.209 53.939C401.101 56.807 407.49 67.805 407.49 83.689C407.49 94.843 404.957 102.287 399.085 108.388C390.776 117.021 378.615 116.563 376.812 107.549C376.001 103.492 371.005 99.503 367.216 99.886C364.619 100.149 364.188 100.627 363.969 103.486C363.829 105.299 363.077 107.549 362.296 108.486C353.991 118.453 360.33 134.118 374.871 139.558C381.566 142.064 386.138 142.22 392.99 140.177C400.893 137.821 406.488 134.585 412.077 129.138C424.363 117.165 429.322 95.849 424.895 74.046C420.276 51.301 405.822 37.496 388.129 38.931C381.557 39.464 378.323 40.939 367.246 48.457C359.594 53.65 356.848 53.363 363.257 48.039C367.829 44.242 368.624 41.366 365.556 39.724C363.024 38.369 329.576 38.409 327.24 39.769ZM275.092 45.643C278.177 46.999 279.726 48.545 281.342 51.883C283.361 56.054 283.49 57.798 283.49 80.966V105.612L279.24 106.727C276.903 107.34 273.062 108.482 270.705 109.265C264.161 111.44 255.717 111.095 250.46 108.439C242.005 104.167 239.44 96.555 243.578 88.007C246.341 82.299 251.378 78.145 262.67 72.261C278.371 64.078 280.807 61.338 276.934 56.215C275.236 53.969 273.194 53.86 255.99 55.096C242.783 56.045 240.878 55.2 241.372 48.608C241.778 43.181 264.871 41.15 275.092 45.643Z" fill="#FF2C29"/>
<path fill-rule="evenodd" clip-rule="evenodd" d="M759.469 0.630983C752.912 1.63798 748.008 4.19898 748.008 6.61698C748.008 8.67598 752.805 12.756 760.248 17.027C763.368 18.818 765.248 20.675 765.748 22.461C766.752 26.045 766.734 110.367 765.729 113.966C765.159 116.008 762.673 118.226 756.479 122.222C747.405 128.076 746.095 130.376 750.274 133.114C756.768 137.369 759.29 137.59 804.779 137.888L848.508 138.175L853.171 135.434C864.025 129.053 865.972 115.972 857.35 107.35C853.031 103.031 851.724 102.807 850.212 106.127C847.893 111.217 844.057 112.175 826.008 112.175C807.6 112.175 799.043 110.468 794.794 105.949C792.635 103.653 792.489 102.596 792.168 86.868L791.828 70.218L788.443 66.472C782.569 59.969 782.575 53.454 788.464 45.896L792.008 41.347V29.076C792.008 22.327 792.426 15.706 792.937 14.363C794.218 10.993 798.718 9.67398 808.907 9.68098C818.222 9.68698 824.103 10.88 825.982 13.144C828.664 16.375 826.538 18.606 804.047 36.16C789.479 47.53 787.008 50.484 787.008 56.532C787.008 62.125 789.668 65.799 795.475 68.226C800.332 70.255 805.045 70.014 816.008 67.175C827.697 64.148 830.606 64.059 832.24 66.675C833.862 69.272 835.167 69.199 837.834 66.361C840.788 63.215 840.829 55.989 837.913 52.282C832.664 45.608 823.674 44.127 810.449 47.755C801.271 50.273 798.431 49.758 802.071 46.237C803.411 44.941 807.658 42.185 811.508 40.112C845.626 21.743 856.008 14.037 856.008 7.08098C856.008 4.40698 855.414 3.60698 852.258 2.03898C848.795 0.31798 845.29 0.162985 806.508 0.0159853C783.408 -0.0710147 762.241 0.205983 759.469 0.630983ZM973.683 34.88C962.232 37.259 956.919 46.096 961.964 54.371C964.542 58.599 967.879 60.667 974.796 62.323C979.755 63.511 981.798 63.48 990.29 62.088C1000.43 60.426 1003.01 60.618 1003.01 63.033C1003.01 64.473 997.956 67.192 988.633 70.769C975.845 75.675 964.086 84.274 959.529 92.05C952.132 104.671 955.576 121.23 967.269 129.267C976.809 135.825 981.261 136.339 1009.01 134.084C1014.55 133.633 1019.28 134.014 1027.15 135.544C1036.21 137.307 1038.73 137.45 1044.15 136.512C1051.56 135.229 1056.88 132.93 1058.42 130.346C1059.33 128.809 1058.84 127.924 1055.35 124.79L1051.19 121.062L1050.52 86.619C1050.15 67.675 1049.38 50.6 1048.8 48.675C1047.22 43.363 1043.8 39.427 1038.39 36.701C1033.56 34.261 1033.22 34.235 1005.47 34.169C990.043 34.133 975.741 34.453 973.683 34.88ZM871.758 38.755C868.953 40.389 869.697 42.644 874.521 47.136L879.034 51.339L878.771 86.73L878.508 122.121L872.758 125.925C869.595 128.018 867.008 130.089 867.008 130.528C867.008 131.978 871.449 135.246 875.008 136.415C878.696 137.626 900.037 137.473 905.612 136.195C907.319 135.804 910.016 134.446 911.606 133.178C914.487 130.882 914.49 130.865 912.555 128.727C911.487 127.547 908.902 125.619 906.81 124.444L903.008 122.307V92.697V63.087L908.548 61.381C916.305 58.992 920.526 59.149 922.451 61.898C924.13 64.294 924.539 69.682 923.158 71.225C922.691 71.747 921.573 74.08 920.673 76.409C919.377 79.762 919.273 81.163 920.174 83.14C921.583 86.233 924.947 87.476 926.432 85.453C927.024 84.646 929.758 82.992 932.508 81.777C942.311 77.446 947.98 68.93 947.998 58.508C948.019 46.217 940.848 37.675 930.508 37.675C925.435 37.675 922.835 39.004 916.022 45.083C909.673 50.749 904.382 54.024 902.98 53.158C901.407 52.186 903.306 49.105 907.283 46.175C912.101 42.627 912.645 41.455 910.481 39.291C909.113 37.922 906.159 37.68 891.187 37.705C881.049 37.723 872.762 38.171 871.758 38.755ZM1016.95 44.544C1018.84 45.516 1021.32 47.551 1022.45 49.065C1024.39 51.653 1024.53 53.385 1024.8 78.192L1025.1 104.567L1020.8 105.737C1018.44 106.381 1014.81 107.53 1012.74 108.291C1010.66 109.052 1006.12 109.675 1002.64 109.675C993.893 109.675 988.323 106.728 985.174 100.432C982.903 95.892 982.883 95.619 984.422 90.322C986.511 83.138 993.414 76.826 1006.19 70.42C1017.26 64.865 1020.3 62.109 1019.83 58.037C1019.3 53.42 1015.68 52.318 1005.22 53.601C992.666 55.141 987.002 54.979 984.837 53.02C982.233 50.664 982.536 47.031 985.497 45.09C991.066 41.441 1010.26 41.108 1016.95 44.544Z" fill="black"/>
</svg>
